<svg id="eovg371eo6h1" xmlns="http://www.w3.org/2000/svg" xmlns:xlink="http://www.w3.org/1999/xlink" viewBox="0 0 280 300" shape-rendering="geometricPrecision" text-rendering="geometricPrecision">
  <style><![CDATA[#eovg371eo6h8_to {animation: eovg371eo6h8_to__to 4000ms linear infinite normal forwards}@keyframes eovg371eo6h8_to__to { 0% {transform: translate(84.500000px,150px)} 25% {transform: translate(195.500000px,150px)} 50% {transform: translate(195.500000px,149.800000px)} 75% {transform: translate(84.500000px,149.800000px)} 100% {transform: translate(84.500000px,150px)} }]]></style>
  <g id="eovg371eo6h2" transform="matrix(1 0 0 1 0 0.00000000000034)">
    <g id="eovg371eo6h3">
      <rect id="eovg371eo6h4" width="230" height="250" rx="0" ry="0" transform="matrix(1 0 0 1 25 25)" fill="rgb(0,0,0)" stroke="rgb(0,0,0)" stroke-width="1"/>
      <rect id="eovg371eo6h5" width="228" height="248" rx="0" ry="0" transform="matrix(1 0 0 1 26 26)" fill="rgb(102,102,102)" stroke="rgb(0,0,0)" stroke-width="1"/>
      <rect id="eovg371eo6h6" width="214" height="234" rx="0" ry="0" transform="matrix(1 0 0 1 33 33)" fill="rgb(0,0,0)" stroke="rgb(0,0,0)" stroke-width="1"/>
      <rect id="eovg371eo6h7" width="205" height="224" rx="0" ry="0" transform="matrix(1 0 0 1 37.50000000000000 37.80000000000000)" fill="rgb(255,255,255)" stroke="rgb(0,0,0)" stroke-width="1"/>
    </g>
    <g id="eovg371eo6h8_to" transform="translate(84.500000,150)">
      <g id="eovg371eo6h8" transform="translate(-87,-149.799992)">
        <rect id="eovg371eo6h9" width="110" height="238" rx="0" ry="0" transform="matrix(1 0 0 1 31.50000000000000 30.80000000000000)" fill="rgb(0,0,0)" stroke="rgb(0,0,0)" stroke-width="1"/>
        <rect id="eovg371eo6h10" width="111" height="238" rx="0" ry="0" transform="matrix(1 0 0 1 31.50000000000000 30.80000000000000)" fill="rgb(203,216,216)" stroke="rgb(0,0,0)" stroke-width="1"/>
        <rect id="eovg371eo6h11" width="91" height="219" rx="0" ry="0" transform="matrix(1 0 0 1 41.50000000000000 40.80000000000000)" fill="rgb(0,0,0)" stroke="rgb(0,0,0)" stroke-width="1"/>
        <rect id="eovg371eo6h12" width="92" height="222" rx="0" ry="0" transform="matrix(1 0 0 1 40.50000000000000 38.80000000000000)" fill="rgb(255,255,255)" stroke="rgb(0,0,0)" stroke-width="1"/>
        <ellipse id="eovg371eo6h13" rx="2.500000" ry="12.500000" transform="matrix(1 0 0 1 36 145.30000000000001)" fill="rgb(231,237,168)" stroke="rgb(0,0,0)" stroke-width="1"/>
      </g>
    </g>
  </g>
</svg>